<?xml version="1.0" standalone="no"?>
<svg xmlns="http://www.w3.org/2000/svg" width="256" height="256"><defs><clipPath id="clip-path-dot-color"><rect x="15" y="96" width="9" height="9" transform="rotate(0,19.5,100.5)"/><rect x="15" y="105" width="9" height="9" transform="rotate(0,19.5,109.5)"/><rect x="15" y="132" width="9" height="9" transform="rotate(0,19.5,136.5)"/><rect x="15" y="141" width="9" height="9" transform="rotate(0,19.5,145.5)"/><rect x="24" y="87" width="9" height="9" transform="rotate(0,28.5,91.5)"/><rect x="24" y="96" width="9" height="9" transform="rotate(0,28.5,100.5)"/><rect x="24" y="123" width="9" height="9" transform="rotate(0,28.5,127.5)"/><rect x="24" y="159" width="9" height="9" transform="rotate(0,28.5,163.5)"/><rect x="33" y="87" width="9" height="9" transform="rotate(0,37.5,91.5)"/><rect x="33" y="105" width="9" height="9" transform="rotate(0,37.5,109.5)"/><rect x="33" y="123" width="9" height="9" transform="rotate(0,37.5,127.5)"/><rect x="33" y="141" width="9" height="9" transform="rotate(0,37.5,145.5)"/><rect x="33" y="150" width="9" height="9" transform="rotate(0,37.5,154.5)"/><rect x="33" y="159" width="9" height="9" transform="rotate(0,37.5,163.5)"/><rect x="42" y="87" width="9" height="9" transform="rotate(0,46.5,91.5)"/><rect x="42" y="96" width="9" height="9" transform="rotate(0,46.5,100.5)"/><rect x="42" y="132" width="9" height="9" transform="rotate(0,46.5,136.5)"/><rect x="42" y="150" width="9" height="9" transform="rotate(0,46.5,154.5)"/><rect x="42" y="159" width="9" height="9" transform="rotate(0,46.5,163.5)"/><rect x="51" y="96" width="9" height="9" transform="rotate(0,55.5,100.5)"/><rect x="51" y="123" width="9" height="9" transform="rotate(0,55.5,127.5)"/><rect x="51" y="132" width="9" height="9" transform="rotate(0,55.5,136.5)"/><rect x="51" y="159" width="9" height="9" transform="rotate(0,55.5,163.5)"/><rect x="60" y="96" width="9" height="9" transform="rotate(0,64.5,100.5)"/><rect x="60" y="114" width="9" height="9" transform="rotate(0,64.5,118.5)"/><rect x="60" y="123" width="9" height="9" transform="rotate(0,64.5,127.5)"/><rect x="60" y="141" width="9" height="9" transform="rotate(0,64.5,145.5)"/><rect x="60" y="159" width="9" height="9" transform="rotate(0,64.5,163.5)"/><rect x="69" y="87" width="9" height="9" transform="rotate(0,73.5,91.5)"/><rect x="69" y="105" width="9" height="9" transform="rotate(0,73.5,109.5)"/><rect x="69" y="123" width="9" height="9" transform="rotate(0,73.5,127.5)"/><rect x="69" y="141" width="9" height="9" transform="rotate(0,73.5,145.5)"/><rect x="69" y="159" width="9" height="9" transform="rotate(0,73.5,163.5)"/><rect x="78" y="87" width="9" height="9" transform="rotate(0,82.5,91.5)"/><rect x="78" y="105" width="9" height="9" transform="rotate(0,82.5,109.5)"/><rect x="78" y="123" width="9" height="9" transform="rotate(0,82.5,127.5)"/><rect x="78" y="141" width="9" height="9" transform="rotate(0,82.5,145.5)"/><rect x="87" y="15" width="9" height="9" transform="rotate(0,91.5,19.5)"/><rect x="87" y="69" width="9" height="9" transform="rotate(0,91.5,73.5)"/><rect x="87" y="87" width="9" height="9" transform="rotate(0,91.5,91.5)"/><rect x="87" y="123" width="9" height="9" transform="rotate(0,91.5,127.5)"/><rect x="87" y="132" width="9" height="9" transform="rotate(0,91.5,136.5)"/><rect x="87" y="141" width="9" height="9" transform="rotate(0,91.5,145.5)"/><rect x="87" y="150" width="9" height="9" transform="rotate(0,91.5,154.5)"/><rect x="87" y="168" width="9" height="9" transform="rotate(0,91.5,172.5)"/><rect x="87" y="177" width="9" height="9" transform="rotate(0,91.5,181.5)"/><rect x="87" y="204" width="9" height="9" transform="rotate(0,91.5,208.5)"/><rect x="87" y="213" width="9" height="9" transform="rotate(0,91.5,217.5)"/><rect x="87" y="222" width="9" height="9" transform="rotate(0,91.5,226.5)"/><rect x="96" y="42" width="9" height="9" transform="rotate(0,100.5,46.5)"/><rect x="96" y="51" width="9" height="9" transform="rotate(0,100.5,55.5)"/><rect x="96" y="96" width="9" height="9" transform="rotate(0,100.5,100.5)"/><rect x="96" y="105" width="9" height="9" transform="rotate(0,100.5,109.5)"/><rect x="96" y="114" width="9" height="9" transform="rotate(0,100.5,118.5)"/><rect x="96" y="132" width="9" height="9" transform="rotate(0,100.5,136.5)"/><rect x="96" y="141" width="9" height="9" transform="rotate(0,100.5,145.5)"/><rect x="96" y="150" width="9" height="9" transform="rotate(0,100.5,154.5)"/><rect x="96" y="168" width="9" height="9" transform="rotate(0,100.5,172.5)"/><rect x="96" y="186" width="9" height="9" transform="rotate(0,100.5,190.5)"/><rect x="96" y="195" width="9" height="9" transform="rotate(0,100.5,199.5)"/><rect x="96" y="204" width="9" height="9" transform="rotate(0,100.5,208.5)"/><rect x="96" y="213" width="9" height="9" transform="rotate(0,100.5,217.5)"/><rect x="96" y="222" width="9" height="9" transform="rotate(0,100.5,226.5)"/><rect x="105" y="15" width="9" height="9" transform="rotate(0,109.5,19.5)"/><rect x="105" y="42" width="9" height="9" transform="rotate(0,109.5,46.5)"/><rect x="105" y="51" width="9" height="9" transform="rotate(0,109.5,55.5)"/><rect x="105" y="69" width="9" height="9" transform="rotate(0,109.5,73.5)"/><rect x="105" y="78" width="9" height="9" transform="rotate(0,109.5,82.5)"/><rect x="105" y="87" width="9" height="9" transform="rotate(0,109.5,91.5)"/><rect x="105" y="114" width="9" height="9" transform="rotate(0,109.5,118.5)"/><rect x="105" y="150" width="9" height="9" transform="rotate(0,109.5,154.5)"/><rect x="105" y="177" width="9" height="9" transform="rotate(0,109.5,181.5)"/><rect x="105" y="186" width="9" height="9" transform="rotate(0,109.5,190.5)"/><rect x="105" y="204" width="9" height="9" transform="rotate(0,109.5,208.5)"/><rect x="105" y="222" width="9" height="9" transform="rotate(0,109.5,226.5)"/><rect x="105" y="231" width="9" height="9" transform="rotate(0,109.5,235.5)"/><rect x="114" y="24" width="9" height="9" transform="rotate(0,118.5,28.5)"/><rect x="114" y="33" width="9" height="9" transform="rotate(0,118.5,37.5)"/><rect x="114" y="42" width="9" height="9" transform="rotate(0,118.5,46.5)"/><rect x="114" y="51" width="9" height="9" transform="rotate(0,118.5,55.5)"/><rect x="114" y="78" width="9" height="9" transform="rotate(0,118.5,82.5)"/><rect x="114" y="87" width="9" height="9" transform="rotate(0,118.5,91.5)"/><rect x="114" y="96" width="9" height="9" transform="rotate(0,118.5,100.5)"/><rect x="114" y="105" width="9" height="9" transform="rotate(0,118.5,109.5)"/><rect x="114" y="114" width="9" height="9" transform="rotate(0,118.5,118.5)"/><rect x="114" y="150" width="9" height="9" transform="rotate(0,118.5,154.5)"/><rect x="114" y="168" width="9" height="9" transform="rotate(0,118.5,172.5)"/><rect x="114" y="195" width="9" height="9" transform="rotate(0,118.5,199.5)"/><rect x="114" y="204" width="9" height="9" transform="rotate(0,118.5,208.5)"/><rect x="114" y="231" width="9" height="9" transform="rotate(0,118.5,235.5)"/><rect x="123" y="15" width="9" height="9" transform="rotate(0,127.5,19.5)"/><rect x="123" y="24" width="9" height="9" transform="rotate(0,127.5,28.5)"/><rect x="123" y="33" width="9" height="9" transform="rotate(0,127.5,37.5)"/><rect x="123" y="42" width="9" height="9" transform="rotate(0,127.5,46.5)"/><rect x="123" y="69" width="9" height="9" transform="rotate(0,127.5,73.5)"/><rect x="123" y="78" width="9" height="9" transform="rotate(0,127.5,82.5)"/><rect x="123" y="105" width="9" height="9" transform="rotate(0,127.5,109.5)"/><rect x="123" y="123" width="9" height="9" transform="rotate(0,127.5,127.5)"/><rect x="123" y="150" width="9" height="9" transform="rotate(0,127.5,154.5)"/><rect x="123" y="168" width="9" height="9" transform="rotate(0,127.5,172.5)"/><rect x="123" y="177" width="9" height="9" transform="rotate(0,127.5,181.5)"/><rect x="123" y="186" width="9" height="9" transform="rotate(0,127.5,190.5)"/><rect x="123" y="231" width="9" height="9" transform="rotate(0,127.5,235.5)"/><rect x="132" y="15" width="9" height="9" transform="rotate(0,136.5,19.5)"/><rect x="132" y="24" width="9" height="9" transform="rotate(0,136.5,28.5)"/><rect x="132" y="33" width="9" height="9" transform="rotate(0,136.5,37.5)"/><rect x="132" y="42" width="9" height="9" transform="rotate(0,136.5,46.5)"/><rect x="132" y="105" width="9" height="9" transform="rotate(0,136.5,109.5)"/><rect x="132" y="132" width="9" height="9" transform="rotate(0,136.5,136.5)"/><rect x="132" y="150" width="9" height="9" transform="rotate(0,136.5,154.5)"/><rect x="132" y="159" width="9" height="9" transform="rotate(0,136.5,163.5)"/><rect x="132" y="186" width="9" height="9" transform="rotate(0,136.5,190.5)"/><rect x="132" y="222" width="9" height="9" transform="rotate(0,136.5,226.5)"/><rect x="141" y="15" width="9" height="9" transform="rotate(0,145.5,19.5)"/><rect x="141" y="33" width="9" height="9" transform="rotate(0,145.5,37.5)"/><rect x="141" y="60" width="9" height="9" transform="rotate(0,145.5,64.5)"/><rect x="141" y="69" width="9" height="9" transform="rotate(0,145.5,73.5)"/><rect x="141" y="78" width="9" height="9" transform="rotate(0,145.5,82.5)"/><rect x="141" y="105" width="9" height="9" transform="rotate(0,145.5,109.5)"/><rect x="141" y="114" width="9" height="9" transform="rotate(0,145.5,118.5)"/><rect x="141" y="123" width="9" height="9" transform="rotate(0,145.5,127.5)"/><rect x="141" y="132" width="9" height="9" transform="rotate(0,145.5,136.5)"/><rect x="141" y="141" width="9" height="9" transform="rotate(0,145.5,145.5)"/><rect x="141" y="150" width="9" height="9" transform="rotate(0,145.5,154.5)"/><rect x="141" y="159" width="9" height="9" transform="rotate(0,145.5,163.5)"/><rect x="141" y="168" width="9" height="9" transform="rotate(0,145.5,172.5)"/><rect x="141" y="186" width="9" height="9" transform="rotate(0,145.5,190.5)"/><rect x="141" y="195" width="9" height="9" transform="rotate(0,145.5,199.5)"/><rect x="141" y="204" width="9" height="9" transform="rotate(0,145.5,208.5)"/><rect x="141" y="222" width="9" height="9" transform="rotate(0,145.5,226.5)"/><rect x="141" y="231" width="9" height="9" transform="rotate(0,145.5,235.5)"/><rect x="150" y="15" width="9" height="9" transform="rotate(0,154.5,19.5)"/><rect x="150" y="33" width="9" height="9" transform="rotate(0,154.5,37.5)"/><rect x="150" y="51" width="9" height="9" transform="rotate(0,154.5,55.5)"/><rect x="150" y="78" width="9" height="9" transform="rotate(0,154.5,82.5)"/><rect x="150" y="105" width="9" height="9" transform="rotate(0,154.5,109.5)"/><rect x="150" y="114" width="9" height="9" transform="rotate(0,154.5,118.5)"/><rect x="150" y="150" width="9" height="9" transform="rotate(0,154.5,154.5)"/><rect x="150" y="186" width="9" height="9" transform="rotate(0,154.5,190.5)"/><rect x="150" y="204" width="9" height="9" transform="rotate(0,154.5,208.5)"/><rect x="150" y="213" width="9" height="9" transform="rotate(0,154.5,217.5)"/><rect x="150" y="231" width="9" height="9" transform="rotate(0,154.5,235.5)"/><rect x="159" y="15" width="9" height="9" transform="rotate(0,163.5,19.5)"/><rect x="159" y="69" width="9" height="9" transform="rotate(0,163.5,73.5)"/><rect x="159" y="78" width="9" height="9" transform="rotate(0,163.5,82.5)"/><rect x="159" y="87" width="9" height="9" transform="rotate(0,163.5,91.5)"/><rect x="159" y="105" width="9" height="9" transform="rotate(0,163.5,109.5)"/><rect x="159" y="114" width="9" height="9" transform="rotate(0,163.5,118.5)"/><rect x="159" y="132" width="9" height="9" transform="rotate(0,163.5,136.5)"/><rect x="159" y="141" width="9" height="9" transform="rotate(0,163.5,145.5)"/><rect x="159" y="159" width="9" height="9" transform="rotate(0,163.5,163.5)"/><rect x="159" y="168" width="9" height="9" transform="rotate(0,163.5,172.5)"/><rect x="159" y="177" width="9" height="9" transform="rotate(0,163.5,181.5)"/><rect x="159" y="186" width="9" height="9" transform="rotate(0,163.5,190.5)"/><rect x="159" y="195" width="9" height="9" transform="rotate(0,163.5,199.5)"/><rect x="159" y="213" width="9" height="9" transform="rotate(0,163.5,217.5)"/><rect x="168" y="87" width="9" height="9" transform="rotate(0,172.5,91.5)"/><rect x="168" y="123" width="9" height="9" transform="rotate(0,172.5,127.5)"/><rect x="168" y="132" width="9" height="9" transform="rotate(0,172.5,136.5)"/><rect x="168" y="159" width="9" height="9" transform="rotate(0,172.5,163.5)"/><rect x="168" y="195" width="9" height="9" transform="rotate(0,172.5,199.5)"/><rect x="177" y="96" width="9" height="9" transform="rotate(0,181.5,100.5)"/><rect x="177" y="114" width="9" height="9" transform="rotate(0,181.5,118.5)"/><rect x="177" y="132" width="9" height="9" transform="rotate(0,181.5,136.5)"/><rect x="177" y="159" width="9" height="9" transform="rotate(0,181.5,163.5)"/><rect x="177" y="177" width="9" height="9" transform="rotate(0,181.5,181.5)"/><rect x="177" y="195" width="9" height="9" transform="rotate(0,181.5,199.5)"/><rect x="177" y="231" width="9" height="9" transform="rotate(0,181.5,235.5)"/><rect x="186" y="96" width="9" height="9" transform="rotate(0,190.5,100.5)"/><rect x="186" y="105" width="9" height="9" transform="rotate(0,190.5,109.5)"/><rect x="186" y="123" width="9" height="9" transform="rotate(0,190.5,127.5)"/><rect x="186" y="141" width="9" height="9" transform="rotate(0,190.5,145.5)"/><rect x="186" y="159" width="9" height="9" transform="rotate(0,190.5,163.5)"/><rect x="186" y="195" width="9" height="9" transform="rotate(0,190.5,199.5)"/><rect x="186" y="222" width="9" height="9" transform="rotate(0,190.5,226.5)"/><rect x="195" y="96" width="9" height="9" transform="rotate(0,199.5,100.5)"/><rect x="195" y="105" width="9" height="9" transform="rotate(0,199.5,109.5)"/><rect x="195" y="123" width="9" height="9" transform="rotate(0,199.5,127.5)"/><rect x="195" y="132" width="9" height="9" transform="rotate(0,199.5,136.5)"/><rect x="195" y="141" width="9" height="9" transform="rotate(0,199.5,145.5)"/><rect x="195" y="150" width="9" height="9" transform="rotate(0,199.5,154.5)"/><rect x="195" y="159" width="9" height="9" transform="rotate(0,199.5,163.5)"/><rect x="195" y="168" width="9" height="9" transform="rotate(0,199.5,172.5)"/><rect x="195" y="177" width="9" height="9" transform="rotate(0,199.5,181.5)"/><rect x="195" y="186" width="9" height="9" transform="rotate(0,199.5,190.5)"/><rect x="195" y="195" width="9" height="9" transform="rotate(0,199.5,199.5)"/><rect x="195" y="213" width="9" height="9" transform="rotate(0,199.5,217.5)"/><rect x="195" y="222" width="9" height="9" transform="rotate(0,199.5,226.5)"/><rect x="195" y="231" width="9" height="9" transform="rotate(0,199.5,235.5)"/><rect x="204" y="141" width="9" height="9" transform="rotate(0,208.5,145.5)"/><rect x="204" y="159" width="9" height="9" transform="rotate(0,208.5,163.5)"/><rect x="204" y="168" width="9" height="9" transform="rotate(0,208.5,172.5)"/><rect x="204" y="177" width="9" height="9" transform="rotate(0,208.5,181.5)"/><rect x="204" y="222" width="9" height="9" transform="rotate(0,208.5,226.5)"/><rect x="204" y="231" width="9" height="9" transform="rotate(0,208.5,235.5)"/><rect x="213" y="96" width="9" height="9" transform="rotate(0,217.5,100.5)"/><rect x="213" y="114" width="9" height="9" transform="rotate(0,217.5,118.5)"/><rect x="213" y="123" width="9" height="9" transform="rotate(0,217.5,127.5)"/><rect x="213" y="141" width="9" height="9" transform="rotate(0,217.5,145.5)"/><rect x="213" y="204" width="9" height="9" transform="rotate(0,217.5,208.5)"/><rect x="213" y="213" width="9" height="9" transform="rotate(0,217.5,217.5)"/><rect x="213" y="231" width="9" height="9" transform="rotate(0,217.5,235.5)"/><rect x="222" y="114" width="9" height="9" transform="rotate(0,226.5,118.5)"/><rect x="222" y="141" width="9" height="9" transform="rotate(0,226.5,145.5)"/><rect x="222" y="159" width="9" height="9" transform="rotate(0,226.5,163.5)"/><rect x="222" y="168" width="9" height="9" transform="rotate(0,226.5,172.5)"/><rect x="222" y="177" width="9" height="9" transform="rotate(0,226.5,181.5)"/><rect x="222" y="186" width="9" height="9" transform="rotate(0,226.5,190.5)"/><rect x="222" y="195" width="9" height="9" transform="rotate(0,226.5,199.5)"/><rect x="222" y="231" width="9" height="9" transform="rotate(0,226.5,235.5)"/><rect x="231" y="87" width="9" height="9" transform="rotate(0,235.5,91.5)"/><rect x="231" y="96" width="9" height="9" transform="rotate(0,235.5,100.5)"/><rect x="231" y="123" width="9" height="9" transform="rotate(0,235.5,127.5)"/><rect x="231" y="132" width="9" height="9" transform="rotate(0,235.5,136.5)"/><rect x="231" y="141" width="9" height="9" transform="rotate(0,235.5,145.5)"/><rect x="231" y="159" width="9" height="9" transform="rotate(0,235.5,163.5)"/><rect x="231" y="204" width="9" height="9" transform="rotate(0,235.5,208.5)"/><rect x="231" y="231" width="9" height="9" transform="rotate(0,235.5,235.5)"/></clipPath><clipPath id="clip-path-corners-square-color-0-0"><path clip-rule="evenodd" d="M 15 15v 63h 63v -63zM 24 24h 45v 45h -45z" transform="rotate(0,46.5,46.5)"/></clipPath><clipPath id="clip-path-corners-dot-color-0-0"><rect x="33" y="33" width="27" height="27" transform="rotate(0,46.5,46.5)"/></clipPath><clipPath id="clip-path-corners-square-color-1-0"><path clip-rule="evenodd" d="M 177 15v 63h 63v -63zM 186 24h 45v 45h -45z" transform="rotate(90,208.5,46.5)"/></clipPath><clipPath id="clip-path-corners-dot-color-1-0"><rect x="195" y="33" width="27" height="27" transform="rotate(90,208.5,46.5)"/></clipPath><clipPath id="clip-path-corners-square-color-0-1"><path clip-rule="evenodd" d="M 15 177v 63h 63v -63zM 24 186h 45v 45h -45z" transform="rotate(-90,46.5,208.5)"/></clipPath><clipPath id="clip-path-corners-dot-color-0-1"><rect x="33" y="195" width="27" height="27" transform="rotate(-90,46.5,208.5)"/></clipPath></defs><rect x="0" y="0" height="256" width="256" clip-path="url('#clip-path-background-color')" fill="#FFFFFF"/><rect x="0" y="0" height="256" width="256" clip-path="url('#clip-path-dot-color')" fill="#000000"/><rect x="15" y="15" height="63" width="63" clip-path="url('#clip-path-corners-square-color-0-0')" fill="#000000"/><rect x="33" y="33" height="27" width="27" clip-path="url('#clip-path-corners-dot-color-0-0')" fill="#000000"/><rect x="177" y="15" height="63" width="63" clip-path="url('#clip-path-corners-square-color-1-0')" fill="#000000"/><rect x="195" y="33" height="27" width="27" clip-path="url('#clip-path-corners-dot-color-1-0')" fill="#000000"/><rect x="15" y="177" height="63" width="63" clip-path="url('#clip-path-corners-square-color-0-1')" fill="#000000"/><rect x="33" y="195" height="27" width="27" clip-path="url('#clip-path-corners-dot-color-0-1')" fill="#000000"/></svg>